<mxfile host="app.diagrams.net" modified="2023-05-11T08:37:23.315Z" agent="Mozilla/5.0 (Windows NT 10.0; Win64; x64) AppleWebKit/537.36 (KHTML, like Gecko) Chrome/112.0.0.0 Safari/537.36 Edg/112.0.1722.58" etag="lMdpXF40ZyMgCurDK7jn" version="21.2.9" type="github">
  <diagram name="第 1 页" id="BElo7om5jGGbFj0Af3AL">
    <mxGraphModel dx="1393" dy="987" grid="0" gridSize="10" guides="1" tooltips="1" connect="1" arrows="1" fold="1" page="0" pageScale="1" pageWidth="827" pageHeight="1169" math="0" shadow="0">
      <root>
        <mxCell id="0" />
        <mxCell id="1" parent="0" />
        <mxCell id="bVco4FqVIC_qduRgnc7y-1" value="用户" style="rounded=0;whiteSpace=wrap;html=1;" vertex="1" parent="1">
          <mxGeometry x="80" y="150" width="78" height="35" as="geometry" />
        </mxCell>
        <mxCell id="bVco4FqVIC_qduRgnc7y-2" value="视频id" style="ellipse;whiteSpace=wrap;html=1;" vertex="1" parent="1">
          <mxGeometry x="123" y="-62" width="96" height="40" as="geometry" />
        </mxCell>
        <mxCell id="bVco4FqVIC_qduRgnc7y-4" value="视频类别父id" style="ellipse;whiteSpace=wrap;html=1;" vertex="1" parent="1">
          <mxGeometry x="315" y="-30" width="96" height="40" as="geometry" />
        </mxCell>
        <mxCell id="bVco4FqVIC_qduRgnc7y-5" value="视频发布者id" style="ellipse;whiteSpace=wrap;html=1;" vertex="1" parent="1">
          <mxGeometry x="371" y="6" width="96" height="40" as="geometry" />
        </mxCell>
        <mxCell id="bVco4FqVIC_qduRgnc7y-6" value="视频发布者头像" style="ellipse;whiteSpace=wrap;html=1;" vertex="1" parent="1">
          <mxGeometry x="416" y="100" width="96" height="40" as="geometry" />
        </mxCell>
        <mxCell id="bVco4FqVIC_qduRgnc7y-7" value="视频发布者名" style="ellipse;whiteSpace=wrap;html=1;" vertex="1" parent="1">
          <mxGeometry x="393" y="56" width="96" height="40" as="geometry" />
        </mxCell>
        <mxCell id="bVco4FqVIC_qduRgnc7y-8" value="视频标题" style="ellipse;whiteSpace=wrap;html=1;" vertex="1" parent="1">
          <mxGeometry x="393" y="145" width="96" height="40" as="geometry" />
        </mxCell>
        <mxCell id="bVco4FqVIC_qduRgnc7y-9" value="视频描述" style="ellipse;whiteSpace=wrap;html=1;" vertex="1" parent="1">
          <mxGeometry x="350" y="192" width="96" height="40" as="geometry" />
        </mxCell>
        <mxCell id="bVco4FqVIC_qduRgnc7y-10" value="逻辑删除" style="ellipse;whiteSpace=wrap;html=1;" vertex="1" parent="1">
          <mxGeometry x="-199" y="29" width="96" height="40" as="geometry" />
        </mxCell>
        <mxCell id="bVco4FqVIC_qduRgnc7y-11" value="收藏人数" style="ellipse;whiteSpace=wrap;html=1;" vertex="1" parent="1">
          <mxGeometry x="-185" y="263" width="96" height="40" as="geometry" />
        </mxCell>
        <mxCell id="bVco4FqVIC_qduRgnc7y-12" value="喜欢人数" style="ellipse;whiteSpace=wrap;html=1;" vertex="1" parent="1">
          <mxGeometry x="-217" y="216" width="96" height="40" as="geometry" />
        </mxCell>
        <mxCell id="bVco4FqVIC_qduRgnc7y-13" value="视频封面" style="ellipse;whiteSpace=wrap;html=1;" vertex="1" parent="1">
          <mxGeometry x="322" y="239" width="96" height="40" as="geometry" />
        </mxCell>
        <mxCell id="bVco4FqVIC_qduRgnc7y-14" value="访问量" style="ellipse;whiteSpace=wrap;html=1;" vertex="1" parent="1">
          <mxGeometry x="-114" y="303" width="96" height="40" as="geometry" />
        </mxCell>
        <mxCell id="bVco4FqVIC_qduRgnc7y-15" value="不喜欢人数" style="ellipse;whiteSpace=wrap;html=1;" vertex="1" parent="1">
          <mxGeometry x="-236" y="169" width="96" height="40" as="geometry" />
        </mxCell>
        <mxCell id="bVco4FqVIC_qduRgnc7y-17" value="创建时间" style="ellipse;whiteSpace=wrap;html=1;" vertex="1" parent="1">
          <mxGeometry x="-164" y="-14" width="96" height="40" as="geometry" />
        </mxCell>
        <mxCell id="bVco4FqVIC_qduRgnc7y-18" value="更新时间" style="ellipse;whiteSpace=wrap;html=1;" vertex="1" parent="1">
          <mxGeometry x="-105" y="-52" width="96" height="40" as="geometry" />
        </mxCell>
        <mxCell id="bVco4FqVIC_qduRgnc7y-19" value="发布状态" style="ellipse;whiteSpace=wrap;html=1;" vertex="1" parent="1">
          <mxGeometry x="-219" y="77" width="96" height="40" as="geometry" />
        </mxCell>
        <mxCell id="bVco4FqVIC_qduRgnc7y-22" value="" style="endArrow=none;html=1;rounded=0;exitX=1;exitY=0.5;exitDx=0;exitDy=0;entryX=0;entryY=1;entryDx=0;entryDy=0;" edge="1" parent="1" source="bVco4FqVIC_qduRgnc7y-1" target="bVco4FqVIC_qduRgnc7y-4">
          <mxGeometry width="50" height="50" relative="1" as="geometry">
            <mxPoint x="-8" y="379" as="sourcePoint" />
            <mxPoint x="42" y="329" as="targetPoint" />
          </mxGeometry>
        </mxCell>
        <mxCell id="bVco4FqVIC_qduRgnc7y-23" value="" style="endArrow=none;html=1;rounded=0;exitX=1;exitY=0.5;exitDx=0;exitDy=0;entryX=0;entryY=1;entryDx=0;entryDy=0;" edge="1" parent="1" source="bVco4FqVIC_qduRgnc7y-1" target="bVco4FqVIC_qduRgnc7y-5">
          <mxGeometry width="50" height="50" relative="1" as="geometry">
            <mxPoint x="-51" y="418" as="sourcePoint" />
            <mxPoint x="-1" y="368" as="targetPoint" />
          </mxGeometry>
        </mxCell>
        <mxCell id="bVco4FqVIC_qduRgnc7y-24" value="" style="endArrow=none;html=1;rounded=0;exitX=1;exitY=0.5;exitDx=0;exitDy=0;entryX=0;entryY=0.5;entryDx=0;entryDy=0;" edge="1" parent="1" source="bVco4FqVIC_qduRgnc7y-1" target="bVco4FqVIC_qduRgnc7y-6">
          <mxGeometry width="50" height="50" relative="1" as="geometry">
            <mxPoint x="-27" y="398" as="sourcePoint" />
            <mxPoint x="23" y="348" as="targetPoint" />
          </mxGeometry>
        </mxCell>
        <mxCell id="bVco4FqVIC_qduRgnc7y-25" value="" style="endArrow=none;html=1;rounded=0;exitX=1;exitY=0.5;exitDx=0;exitDy=0;entryX=0;entryY=0.5;entryDx=0;entryDy=0;" edge="1" parent="1" source="bVco4FqVIC_qduRgnc7y-1" target="bVco4FqVIC_qduRgnc7y-8">
          <mxGeometry width="50" height="50" relative="1" as="geometry">
            <mxPoint x="-65" y="377" as="sourcePoint" />
            <mxPoint x="-15" y="327" as="targetPoint" />
          </mxGeometry>
        </mxCell>
        <mxCell id="bVco4FqVIC_qduRgnc7y-26" value="" style="endArrow=none;html=1;rounded=0;exitX=1;exitY=0.5;exitDx=0;exitDy=0;entryX=0;entryY=0.5;entryDx=0;entryDy=0;" edge="1" parent="1" source="bVco4FqVIC_qduRgnc7y-1" target="bVco4FqVIC_qduRgnc7y-9">
          <mxGeometry width="50" height="50" relative="1" as="geometry">
            <mxPoint x="8" y="388" as="sourcePoint" />
            <mxPoint x="58" y="338" as="targetPoint" />
          </mxGeometry>
        </mxCell>
        <mxCell id="bVco4FqVIC_qduRgnc7y-27" value="" style="endArrow=none;html=1;rounded=0;exitX=1;exitY=0.5;exitDx=0;exitDy=0;entryX=0;entryY=0;entryDx=0;entryDy=0;" edge="1" parent="1" source="bVco4FqVIC_qduRgnc7y-1" target="bVco4FqVIC_qduRgnc7y-13">
          <mxGeometry width="50" height="50" relative="1" as="geometry">
            <mxPoint x="20" y="386" as="sourcePoint" />
            <mxPoint x="70" y="336" as="targetPoint" />
          </mxGeometry>
        </mxCell>
        <mxCell id="bVco4FqVIC_qduRgnc7y-28" value="" style="endArrow=none;html=1;rounded=0;exitX=0;exitY=0.5;exitDx=0;exitDy=0;entryX=0.5;entryY=0;entryDx=0;entryDy=0;" edge="1" parent="1" source="bVco4FqVIC_qduRgnc7y-1" target="bVco4FqVIC_qduRgnc7y-14">
          <mxGeometry width="50" height="50" relative="1" as="geometry">
            <mxPoint x="-32" y="416" as="sourcePoint" />
            <mxPoint x="18" y="366" as="targetPoint" />
          </mxGeometry>
        </mxCell>
        <mxCell id="bVco4FqVIC_qduRgnc7y-29" value="" style="endArrow=none;html=1;rounded=0;exitX=1;exitY=0.5;exitDx=0;exitDy=0;entryX=0.5;entryY=1;entryDx=0;entryDy=0;" edge="1" parent="1" source="bVco4FqVIC_qduRgnc7y-1" target="bVco4FqVIC_qduRgnc7y-2">
          <mxGeometry width="50" height="50" relative="1" as="geometry">
            <mxPoint x="-57" y="438" as="sourcePoint" />
            <mxPoint x="-7" y="388" as="targetPoint" />
          </mxGeometry>
        </mxCell>
        <mxCell id="bVco4FqVIC_qduRgnc7y-31" value="" style="endArrow=none;html=1;rounded=0;entryX=0;entryY=0.5;entryDx=0;entryDy=0;exitX=1;exitY=0;exitDx=0;exitDy=0;" edge="1" parent="1" source="bVco4FqVIC_qduRgnc7y-11" target="bVco4FqVIC_qduRgnc7y-1">
          <mxGeometry width="50" height="50" relative="1" as="geometry">
            <mxPoint x="-192" y="454" as="sourcePoint" />
            <mxPoint x="-142" y="404" as="targetPoint" />
          </mxGeometry>
        </mxCell>
        <mxCell id="bVco4FqVIC_qduRgnc7y-32" value="" style="endArrow=none;html=1;rounded=0;entryX=0;entryY=0.5;entryDx=0;entryDy=0;exitX=1;exitY=0.5;exitDx=0;exitDy=0;" edge="1" parent="1" source="bVco4FqVIC_qduRgnc7y-12" target="bVco4FqVIC_qduRgnc7y-1">
          <mxGeometry width="50" height="50" relative="1" as="geometry">
            <mxPoint x="-68" y="453" as="sourcePoint" />
            <mxPoint x="-18" y="403" as="targetPoint" />
          </mxGeometry>
        </mxCell>
        <mxCell id="bVco4FqVIC_qduRgnc7y-33" value="" style="endArrow=none;html=1;rounded=0;entryX=1;entryY=0.5;entryDx=0;entryDy=0;exitX=0;exitY=0.5;exitDx=0;exitDy=0;" edge="1" parent="1" source="bVco4FqVIC_qduRgnc7y-7" target="bVco4FqVIC_qduRgnc7y-1">
          <mxGeometry width="50" height="50" relative="1" as="geometry">
            <mxPoint x="-136" y="421" as="sourcePoint" />
            <mxPoint x="-86" y="371" as="targetPoint" />
          </mxGeometry>
        </mxCell>
        <mxCell id="bVco4FqVIC_qduRgnc7y-34" value="" style="endArrow=none;html=1;rounded=0;entryX=0;entryY=0.5;entryDx=0;entryDy=0;exitX=0.658;exitY=1.02;exitDx=0;exitDy=0;exitPerimeter=0;" edge="1" parent="1" source="bVco4FqVIC_qduRgnc7y-18" target="bVco4FqVIC_qduRgnc7y-1">
          <mxGeometry width="50" height="50" relative="1" as="geometry">
            <mxPoint x="-152" y="386" as="sourcePoint" />
            <mxPoint x="-102" y="336" as="targetPoint" />
          </mxGeometry>
        </mxCell>
        <mxCell id="bVco4FqVIC_qduRgnc7y-35" value="" style="endArrow=none;html=1;rounded=0;entryX=0;entryY=0.5;entryDx=0;entryDy=0;exitX=1;exitY=0.5;exitDx=0;exitDy=0;" edge="1" parent="1" source="bVco4FqVIC_qduRgnc7y-10" target="bVco4FqVIC_qduRgnc7y-1">
          <mxGeometry width="50" height="50" relative="1" as="geometry">
            <mxPoint x="-139" y="382" as="sourcePoint" />
            <mxPoint x="-89" y="332" as="targetPoint" />
          </mxGeometry>
        </mxCell>
        <mxCell id="bVco4FqVIC_qduRgnc7y-36" value="" style="endArrow=none;html=1;rounded=0;entryX=0;entryY=0.5;entryDx=0;entryDy=0;exitX=0.946;exitY=0.75;exitDx=0;exitDy=0;exitPerimeter=0;" edge="1" parent="1" source="bVco4FqVIC_qduRgnc7y-17" target="bVco4FqVIC_qduRgnc7y-1">
          <mxGeometry width="50" height="50" relative="1" as="geometry">
            <mxPoint x="-218" y="490" as="sourcePoint" />
            <mxPoint x="-168" y="440" as="targetPoint" />
          </mxGeometry>
        </mxCell>
        <mxCell id="bVco4FqVIC_qduRgnc7y-37" value="" style="endArrow=none;html=1;rounded=0;entryX=0;entryY=0.5;entryDx=0;entryDy=0;exitX=1;exitY=0.5;exitDx=0;exitDy=0;" edge="1" parent="1" source="bVco4FqVIC_qduRgnc7y-19" target="bVco4FqVIC_qduRgnc7y-1">
          <mxGeometry width="50" height="50" relative="1" as="geometry">
            <mxPoint x="-108" y="476" as="sourcePoint" />
            <mxPoint x="-58" y="426" as="targetPoint" />
          </mxGeometry>
        </mxCell>
        <mxCell id="bVco4FqVIC_qduRgnc7y-38" value="" style="endArrow=none;html=1;rounded=0;entryX=0;entryY=0.5;entryDx=0;entryDy=0;exitX=1;exitY=0.5;exitDx=0;exitDy=0;" edge="1" parent="1" source="bVco4FqVIC_qduRgnc7y-15" target="bVco4FqVIC_qduRgnc7y-1">
          <mxGeometry width="50" height="50" relative="1" as="geometry">
            <mxPoint x="4" y="442" as="sourcePoint" />
            <mxPoint x="54" y="392" as="targetPoint" />
          </mxGeometry>
        </mxCell>
        <mxCell id="bVco4FqVIC_qduRgnc7y-39" value="视频类别id" style="ellipse;whiteSpace=wrap;html=1;" vertex="1" parent="1">
          <mxGeometry x="219" y="-48" width="96" height="40" as="geometry" />
        </mxCell>
        <mxCell id="bVco4FqVIC_qduRgnc7y-40" value="视频播放链接" style="ellipse;whiteSpace=wrap;html=1;" vertex="1" parent="1">
          <mxGeometry x="241" y="275" width="96" height="40" as="geometry" />
        </mxCell>
        <mxCell id="bVco4FqVIC_qduRgnc7y-41" value="视频时长" style="ellipse;whiteSpace=wrap;html=1;" vertex="1" parent="1">
          <mxGeometry x="-233" y="123" width="96" height="40" as="geometry" />
        </mxCell>
        <mxCell id="bVco4FqVIC_qduRgnc7y-42" value="" style="endArrow=none;html=1;rounded=0;exitX=1;exitY=0.5;exitDx=0;exitDy=0;entryX=0;entryY=1;entryDx=0;entryDy=0;" edge="1" parent="1" source="bVco4FqVIC_qduRgnc7y-1" target="bVco4FqVIC_qduRgnc7y-39">
          <mxGeometry width="50" height="50" relative="1" as="geometry">
            <mxPoint x="81" y="104" as="sourcePoint" />
            <mxPoint x="131" y="54" as="targetPoint" />
          </mxGeometry>
        </mxCell>
        <mxCell id="bVco4FqVIC_qduRgnc7y-43" style="edgeStyle=orthogonalEdgeStyle;rounded=0;orthogonalLoop=1;jettySize=auto;html=1;exitX=0.5;exitY=1;exitDx=0;exitDy=0;" edge="1" parent="1" source="bVco4FqVIC_qduRgnc7y-40" target="bVco4FqVIC_qduRgnc7y-40">
          <mxGeometry relative="1" as="geometry" />
        </mxCell>
        <mxCell id="bVco4FqVIC_qduRgnc7y-44" value="" style="endArrow=none;html=1;rounded=0;entryX=0;entryY=0.5;entryDx=0;entryDy=0;exitX=1;exitY=0.5;exitDx=0;exitDy=0;" edge="1" parent="1" source="bVco4FqVIC_qduRgnc7y-41" target="bVco4FqVIC_qduRgnc7y-1">
          <mxGeometry width="50" height="50" relative="1" as="geometry">
            <mxPoint x="-121" y="209" as="sourcePoint" />
            <mxPoint x="-71" y="159" as="targetPoint" />
          </mxGeometry>
        </mxCell>
        <mxCell id="bVco4FqVIC_qduRgnc7y-45" value="" style="endArrow=none;html=1;rounded=0;entryX=1;entryY=0.5;entryDx=0;entryDy=0;exitX=0.5;exitY=0;exitDx=0;exitDy=0;" edge="1" parent="1" source="bVco4FqVIC_qduRgnc7y-40" target="bVco4FqVIC_qduRgnc7y-1">
          <mxGeometry width="50" height="50" relative="1" as="geometry">
            <mxPoint x="-4" y="385" as="sourcePoint" />
            <mxPoint x="46" y="335" as="targetPoint" />
          </mxGeometry>
        </mxCell>
      </root>
    </mxGraphModel>
  </diagram>
</mxfile>
